# AST/ASF file generated using VICON BodyLanguage
# -----------------------------------------------
:version 1.10
:name VICON
:units
  mass 1.0
  length 0.45
  angle deg
:documentation
   .ast/.asf automatically generated from VICON data using
   VICON BodyBuilder and BodyLanguage model FoxedUp or BRILLIANT.MOD
:root
   order TX TY TZ RX RY RZ
   axis XYZ
   position 0 0 0  
   orientation 0 0 0 
:bonedata
  begin
     id 1 
     name lhipjoint
     direction 0.710188 -0.616876 0.339259 
     length 2.5669 
     axis 0 0 0  XYZ
  end
  begin
     id 2 
     name lfemur
     direction 0.34202 -0.939693 0  
     length 7.12796  
     axis 0 0 20  XYZ
    dof rx ry rz
    limits (-160.0 20.0)
           (-70.0 70.0)
           (-60.0 70.0)
  end
  begin
     id 3 
     name ltibia
     direction 0.34202 -0.939693 0   
     length 7.58108   
     axis 0 0 20   XYZ
    dof rx
    limits (-10.0 170.0)
  end
  begin
     id 4 
     name lfoot
     direction 0.0669471 -0.183936 0.980656   
     length 2.17365   
     axis -90 7.62852e-016 20   XYZ
    dof rx rz
    limits (-45.0 90.0)
           (-70.0 20.0)
  end
  begin
     id 5 
     name ltoes
     direction 1.53508e-011 -4.21705e-011 1   
     length 1.09427   
     axis -90 7.62852e-016 20   XYZ
    dof rx
    limits (-90.0 20.0)
  end
  begin
     id 6 
     name rhipjoint
     direction -0.700191 -0.625589 0.34405   
     length 2.53115  
     axis 0 0 0  XYZ 
  end
  begin
     id 7 
     name rfemur
     direction -0.34202 -0.939693 0   
     length 7.33006   
     axis 0 0 -20   XYZ
    dof rx ry rz
    limits (-160.0 20.0)
           (-70.0 70.0)
           (-70.0 60.0)
  end
  begin
     id 8 
     name rtibia
     direction -0.34202 -0.939693 0   
     length 7.64926   
     axis 0 0 -20   XYZ
    dof rx
    limits (-10.0 170.0)
 end
 begin
     id 9 
     name rfoot
     direction -0.0688927 -0.189281 0.979503   
     length 2.20493  
     axis -90 -7.62852e-016 -20   XYZ
    dof rx rz
    limits (-45.0 90.0)
           (-20.0 70.0)
  end
  begin
     id 10 
     name rtoes
     direction -1.53567e-011 -4.21933e-011 1   
     length 1.10919   
     axis -90 -7.62852e-016 -20   XYZ
    dof rx
    limits (-90.0 20.0)
  end
  begin
     id 11 
     name lowerback
     direction -0.0167868 0.989873 -0.140959   
     length 2.14596   
     axis 0 0 0   XYZ
    dof rx ry rz
    limits (-20.0 45.0)
           (-30.0 30.0)
           (-30.0 30.0)
  end
  begin
     id 12 
     name upperback
     direction 0.0129109 0.998033 0.0613525   
     length 2.10457   
     axis 0 0 0   XYZ
    dof rx ry rz
    limits (-20.0 45.0)
           (-30.0 30.0)
           (-30.0 30.0)
  end
  begin
     id 13 
     name thorax
     direction 0.0177047 0.991119 0.131797   
     length 2.17652   
     axis 0 0 0   XYZ
    dof rx ry rz
    limits (-20.0 45.0)
           (-30.0 30.0)
           (-30.0 30.0)
  end
  begin
     id 14 
     name lowerneck
     direction -0.0336893 0.997548 0.0613464   
     length 1.8912   
     axis 0 0 0   XYZ
    dof rx ry rz
    limits (-20.0 45.0)
           (-30.0 30.0)
           (-30.0 30.0)
  end
  begin
     id 15 
     name upperneck
     direction 0.0435909 0.997179 -0.0611028   
     length 1.8829   
     axis 0 0 0   XYZ
    dof rx ry rz
    limits (-20.0 45.0)
           (-30.0 30.0)
           (-30.0 30.0)
  end
  begin
     id 16
     name head
     direction 0.0175076 0.999444 -0.0283782  
     length 1.93197  
     axis 0 0 0   XYZ
    dof rx ry rz
    limits (-20.0 45.0)
           (-30.0 30.0)
           (-30.0 30.0)
  end
  begin
     id 17 
     name lclavicle
     direction 0.919164 0.389875 0.0559876  
     length 3.60004  
     axis 0 0 0   XYZ
    dof ry rz
    limits (-20.0 10.0)
           (0.0 20.0)
  end
  begin
     id 18 
     name lhumerus
     direction 1 -4.48958e-011 6.89191e-027   
     length 5.43301   
     axis 180 -30 -90   XYZ
    dof rx ry rz
    limits (-60.0 90.0)
           (-90.0 90.0)
           (-90.0 90.0)
  end
  begin
     id 19
     name lradius
     direction 1 -4.4897e-011 3.24727e-027   
     length 3.15936   
     axis 180 -30 -90   XYZ
    dof rx
    limits (-10.0 170.0)
  end
  begin
     id 20
     name lwrist
     direction 1 -4.4897e-011 9.00228e-027   
     length 1.57968   
     axis -6.29373e-015 90 90   XYZ
    dof ry
    limits (-180.0 0.0)
 end
  begin
     id 21 
     name lhand
     direction 1 -4.48968e-011 1.80042e-026   
     length 0.712827   
     axis -1.14882e-014 90 90   XYZ
    dof rx rz
    limits (-90.0 90.0)
           (-45.0 45.0)
  end
  begin
     id 22 
     name lfingers
     direction 1 -4.49019e-011 3.60267e-026   
     length 0.574699   
     axis -2.29769e-014 90 90   XYZ
    dof rx
    limits (0.0 90.0)
  end
  begin
     id 23
     name lthumb
     direction 0.707107 -6.3498e-011 0.707107   
     length 0.825157   
     axis -90 45 5.37419e-014   XYZ
    dof rx rz
    limits (-45.0 45.0)
           (-45.0 45.0)
  end
  begin
     id 24 
     name rclavicle
     direction -0.890334 0.455305 -0.00132111   
     length 3.51494  
     axis 0 0 0   XYZ 
    dof ry rz
    limits (-10.0 20.0)
           (-20.0 0.0)
  end
  begin
     id 25 
     name rhumerus
     direction -1 -4.48967e-011 5.07175e-028  
     length 5.34194   
     axis 180 30 90   XYZ
    dof rx ry rz
    limits (-90.0 60.0)
           (-90.0 90.0)
           (-90.0 90.0)
  end
  begin
     id 26 
     name rradius
     direction -1 -4.48955e-011 3.30467e-027   
     length 3.19351   
     axis 180 30 90   XYZ
    dof rx
    limits (-10.0 170.0)
  end
  begin
     id 27 
     name rwrist
     direction -1 -4.48968e-011 9.00208e-027   
     length 1.59676   
     axis -6.29373e-015 -90 -90   XYZ
    dof ry
    limits (-180.0 0.0)
  end
  begin
     id 28
     name rhand
     direction -1 -4.49e-011 1.80099e-026   
     length 0.743862   
     axis -1.14882e-014 -90 -90   XYZ
    dof rx rz
    limits (-90.0 90.0)
           (-45.0 45.0)
  end
  begin
     id 29
     name rfingers
     direction -1 -4.49009e-011 3.6023e-026   
     length 0.599721   
     axis -2.29769e-014 -90 -90   XYZ
    dof rx
    limits (0.0 90.0)
  end
  begin
     id 30
     name rthumb
     direction -0.707107 -6.35025e-011 0.707107   
     length 0.861083   
     axis -90 -45 -5.37419e-014   XYZ
    dof rx rz
    limits (-45.0 45.0)
           (-45.0 45.0)
  end
:hierarchy
  begin
    root lhipjoint rhipjoint lowerback
    lhipjoint lfemur
    lfemur ltibia
    ltibia lfoot
    lfoot ltoes
    rhipjoint rfemur
    rfemur rtibia
    rtibia rfoot
    rfoot rtoes
    lowerback upperback
    upperback thorax
    thorax lowerneck lclavicle rclavicle
    lowerneck upperneck
    upperneck head
    lclavicle lhumerus
    lhumerus lradius
    lradius lwrist
    lwrist lhand lthumb
    lhand lfingers
    rclavicle rhumerus
    rhumerus rradius
    rradius rwrist
    rwrist rhand rthumb
    rhand rfingers
  end

#!OML:ASF H:\Martial Arts Walks\Project 1\Capture day 1\Session 1\male.ASF
:FULLY-SPECIFIED
:DEGREES
153
root -7.81393 14.2831 -35.6125 -15.9547 74.9466 -21.4181
lowerback 16.3018 -4.391 -4.19877
upperback -1.26813 -6.06058 5.51027
thorax -9.4766 -2.50719 9.90495
lowerneck 7.82583 -17.3461 -17.3023
upperneck 3.16506 -25.2266 19.6659
head 4.4332 -12.8286 7.32917
rclavicle -9.13416e-014 2.42517e-014
rhumerus -25.5276 23.1064 -57.2445
rradius 78.5987
rwrist -20.0449
rhand -6.74534 -41.3652
rfingers 7.12502
rthumb 19.1157 -70.4458
lclavicle -9.13416e-014 2.42517e-014
lhumerus -21.0614 -21.928 87.7619
lradius 60.232
lwrist -1.78249
lhand -27.1039 14.1056
lfingers 7.12502
lthumb -0.520433 44.0847
rfemur -40.8584 -6.20624 1.09263
rtibia 65.5512
rfoot -27.9402 15.4965
rtoes -23.5056
lfemur -31.7232 20.9462 7.15842
ltibia 71.0413
lfoot -32.6145 7.2627
ltoes -23.9143
154
root -7.82487 14.2576 -35.5925 -17.6909 75.5122 -23.2224
lowerback 16.3779 -4.28336 -4.11462
upperback -1.25488 -5.89732 5.52487
thorax -9.54333 -2.42697 9.84773
lowerneck 7.95296 -17.4111 -17.1616
upperneck 3.04057 -25.3054 19.7367
head 4.38235 -12.8751 7.33909
rclavicle 8.53283e-014 9.93923e-015
rhumerus -25.8104 22.6558 -56.5144
rradius 79.7646
rwrist -20.6028
rhand -6.2368 -41.4131
rfingers 7.12502
rthumb 19.6047 -70.4447
lclavicle 8.53283e-014 9.93923e-015
lhumerus -20.6131 -23.4789 88.089
lradius 61.7596
lwrist -1.1586
lhand -25.6801 13.363
lfingers 7.12502
lthumb 0.854739 43.3411
rfemur -40.9109 -5.88733 1.06667
rtibia 66.1116
rfoot -27.6529 15.8914
rtoes -23.1889
lfemur -32.5386 21.1727 7.41151
ltibia 71.6496
lfoot -32.6 6.31615
ltoes -22.8979
155
root -7.83667 14.2277 -35.5609 -19.0216 75.838 -24.5423
lowerback 16.5082 -4.16473 -4.35722
upperback -1.18463 -5.77372 5.65737
thorax -9.52516 -2.35198 10.1225
lowerneck 7.79371 -17.3533 -17.3172
upperneck 3.09928 -25.2293 19.7518
head 4.43326 -12.8296 7.35376
rclavicle 2.82274e-014 -3.45885e-014
rhumerus -25.757 22.5515 -55.6814
rradius 80.8829
rwrist -21.4263
rhand -6.12784 -41.0685
rfingers 7.12502
rthumb 19.7095 -70.0893
lclavicle 2.82274e-014 -3.45885e-014
lhumerus -20.2048 -24.5633 88.4238
lradius 63.3538
lwrist -0.522253
lhand -25.1509 13.0914
lfingers 7.12502
lthumb 1.3658 43.0668
rfemur -41.0519 -5.34471 0.986911
rtibia 66.717
rfoot -27.5762 16.0895
rtoes -24.308
lfemur -33.1352 21.693 7.63413
ltibia 72.2589
lfoot -32.1802 6.8885
ltoes -22.7047
156
root -7.84756 14.1927 -35.5479 -20.4061 76.4029 -26.0328
lowerback 16.5477 -4.09771 -4.28247
upperback -1.1959 -5.67288 5.61864
thorax -9.59124 -2.30321 10.0201
lowerneck 7.89439 -17.3811 -17.1536
upperneck 3.01344 -25.2529 19.7689
head 4.37744 -12.8468 7.35045
rclavicle -1.83379e-014 -6.95746e-015
rhumerus -26.0091 22.064 -55.0296
rradius 82.0712
rwrist -21.8225
rhand -5.75241 -40.9978
rfingers 7.12502
rthumb 20.0703 -69.9811
lclavicle -1.83379e-014 -6.95746e-015
lhumerus -19.8402 -26.0489 88.7242
lradius 64.9715
lwrist 0.183039
lhand -25.3748 13.5269
lfingers 7.12502
lthumb 1.14962 43.5036
rfemur -41.2403 -5.11157 0.751679
rtibia 67.349
rfoot -27.8012 15.9042
rtoes -26.8258
lfemur -34.144 22.0078 7.55763
ltibia 72.9308
lfoot -31.8201 6.98585
ltoes -22.6237
157
root -7.85721 14.1588 -35.5374 -22.7078 76.8338 -28.4178
lowerback 16.6176 -4.1156 -4.00118
upperback -1.15716 -5.62948 5.68368
thorax -9.61628 -2.29228 9.92666
lowerneck 7.80708 -17.3153 -17.16
upperneck 3.0482 -25.1583 19.7948
head 4.38875 -12.7949 7.36344
rclavicle 2.47984e-014 -3.81667e-014
rhumerus -26.0448 21.6625 -54.4078
rradius 83.2235
rwrist -22.3279
rhand -5.87877 -41.2107
rfingers 7.12502
rthumb 19.9489 -70.2067
lclavicle 2.47984e-014 -3.81667e-014
lhumerus -19.4943 -27.2513 88.9794
lradius 66.6754
lwrist 0.966647
lhand -25.2487 13.5606
lfingers 7.12502
lthumb 1.27135 43.5365
rfemur -41.3855 -4.79218 0.727615
rtibia 67.9526
rfoot -27.7376 16.1392
rtoes -28.1612
lfemur -35.0679 22.2856 7.78209
ltibia 73.6496
lfoot -31.6719 6.42259
ltoes -21.8808
